<mxfile host="app.diagrams.net" agent="Mozilla/5.0 (Macintosh; Intel Mac OS X 10_15_7) AppleWebKit/537.36 (KHTML, like Gecko) Chrome/129.0.0.0 Safari/537.36" version="24.7.16">
  <diagram name="Page-1" id="822b0af5-4adb-64df-f703-e8dfc1f81529">
    <mxGraphModel dx="1151" dy="914" grid="1" gridSize="10" guides="1" tooltips="1" connect="1" arrows="1" fold="1" page="1" pageScale="1" pageWidth="1100" pageHeight="850" background="none" math="0" shadow="0">
      <root>
        <mxCell id="0" />
        <mxCell id="1" parent="0" />
        <mxCell id="oOcDQRxdE2XJ66OAbeFX-16" value="" style="rounded=0;whiteSpace=wrap;html=1;fillColor=none;" vertex="1" parent="1">
          <mxGeometry x="650" y="324" width="100" height="100" as="geometry" />
        </mxCell>
        <mxCell id="oOcDQRxdE2XJ66OAbeFX-6" value="" style="rounded=0;whiteSpace=wrap;html=1;fillColor=none;" vertex="1" parent="1">
          <mxGeometry x="360" y="40" width="660" height="440" as="geometry" />
        </mxCell>
        <mxCell id="oOcDQRxdE2XJ66OAbeFX-4" style="edgeStyle=orthogonalEdgeStyle;rounded=0;orthogonalLoop=1;jettySize=auto;html=1;entryX=0;entryY=0.5;entryDx=0;entryDy=0;endArrow=none;endFill=0;" edge="1" parent="1" source="oOcDQRxdE2XJ66OAbeFX-2" target="oOcDQRxdE2XJ66OAbeFX-3">
          <mxGeometry relative="1" as="geometry" />
        </mxCell>
        <mxCell id="oOcDQRxdE2XJ66OAbeFX-2" value="Game Client" style="sketch=0;outlineConnect=0;fontColor=#232F3E;gradientColor=none;fillColor=#232F3D;strokeColor=none;dashed=0;verticalLabelPosition=bottom;verticalAlign=top;align=center;html=1;fontSize=12;fontStyle=0;aspect=fixed;pointerEvents=1;shape=mxgraph.aws4.mobile_client;" vertex="1" parent="1">
          <mxGeometry x="120" y="160" width="41" height="78" as="geometry" />
        </mxCell>
        <mxCell id="oOcDQRxdE2XJ66OAbeFX-3" value="Internet" style="image;aspect=fixed;perimeter=ellipsePerimeter;html=1;align=center;shadow=0;dashed=0;spacingTop=3;image=img/lib/active_directory/internet_cloud.svg;" vertex="1" parent="1">
          <mxGeometry x="240" y="170.5" width="90.48" height="57" as="geometry" />
        </mxCell>
        <mxCell id="oOcDQRxdE2XJ66OAbeFX-13" style="edgeStyle=orthogonalEdgeStyle;rounded=0;orthogonalLoop=1;jettySize=auto;html=1;exitX=1;exitY=0.5;exitDx=0;exitDy=0;exitPerimeter=0;endArrow=none;endFill=0;fillColor=#f0a30a;strokeColor=#BD7000;" edge="1" parent="1" source="oOcDQRxdE2XJ66OAbeFX-5" target="oOcDQRxdE2XJ66OAbeFX-9">
          <mxGeometry relative="1" as="geometry" />
        </mxCell>
        <mxCell id="oOcDQRxdE2XJ66OAbeFX-21" value="tcp/8777" style="edgeLabel;html=1;align=center;verticalAlign=middle;resizable=0;points=[];" vertex="1" connectable="0" parent="oOcDQRxdE2XJ66OAbeFX-13">
          <mxGeometry x="-0.1111" y="-3" relative="1" as="geometry">
            <mxPoint y="9" as="offset" />
          </mxGeometry>
        </mxCell>
        <mxCell id="oOcDQRxdE2XJ66OAbeFX-5" value="NLB" style="outlineConnect=0;dashed=0;verticalLabelPosition=bottom;verticalAlign=top;align=center;html=1;shape=mxgraph.aws3.classic_load_balancer;fillColor=#F58534;gradientColor=none;" vertex="1" parent="1">
          <mxGeometry x="400" y="163" width="69" height="72" as="geometry" />
        </mxCell>
        <mxCell id="oOcDQRxdE2XJ66OAbeFX-9" value="" style="rounded=0;whiteSpace=wrap;html=1;fillColor=none;" vertex="1" parent="1">
          <mxGeometry x="530" y="111" width="350" height="177" as="geometry" />
        </mxCell>
        <mxCell id="oOcDQRxdE2XJ66OAbeFX-10" value="ECS Fargate Autoscaling Group" style="text;html=1;align=center;verticalAlign=middle;resizable=0;points=[];autosize=1;strokeColor=none;fillColor=none;" vertex="1" parent="1">
          <mxGeometry x="595" y="111" width="190" height="30" as="geometry" />
        </mxCell>
        <mxCell id="oOcDQRxdE2XJ66OAbeFX-18" style="edgeStyle=orthogonalEdgeStyle;rounded=0;orthogonalLoop=1;jettySize=auto;html=1;exitX=0.5;exitY=1;exitDx=0;exitDy=0;exitPerimeter=0;entryX=0;entryY=0.5;entryDx=0;entryDy=0;endArrow=none;endFill=0;" edge="1" parent="1" source="oOcDQRxdE2XJ66OAbeFX-12" target="oOcDQRxdE2XJ66OAbeFX-16">
          <mxGeometry relative="1" as="geometry" />
        </mxCell>
        <mxCell id="oOcDQRxdE2XJ66OAbeFX-12" value="Game Server&lt;br&gt;Process" style="sketch=0;points=[[0,0,0],[0.25,0,0],[0.5,0,0],[0.75,0,0],[1,0,0],[0,1,0],[0.25,1,0],[0.5,1,0],[0.75,1,0],[1,1,0],[0,0.25,0],[0,0.5,0],[0,0.75,0],[1,0.25,0],[1,0.5,0],[1,0.75,0]];outlineConnect=0;fontColor=#232F3E;fillColor=#ED7100;strokeColor=#ffffff;dashed=0;verticalLabelPosition=bottom;verticalAlign=top;align=center;html=1;fontSize=12;fontStyle=0;aspect=fixed;shape=mxgraph.aws4.resourceIcon;resIcon=mxgraph.aws4.ecs;" vertex="1" parent="1">
          <mxGeometry x="572" y="160" width="78" height="78" as="geometry" />
        </mxCell>
        <mxCell id="oOcDQRxdE2XJ66OAbeFX-19" style="edgeStyle=orthogonalEdgeStyle;rounded=0;orthogonalLoop=1;jettySize=auto;html=1;exitX=0.5;exitY=1;exitDx=0;exitDy=0;exitPerimeter=0;entryX=1;entryY=0.5;entryDx=0;entryDy=0;endArrow=none;endFill=0;" edge="1" parent="1" source="oOcDQRxdE2XJ66OAbeFX-14" target="oOcDQRxdE2XJ66OAbeFX-16">
          <mxGeometry relative="1" as="geometry" />
        </mxCell>
        <mxCell id="oOcDQRxdE2XJ66OAbeFX-14" value="Game Server&lt;br&gt;Process" style="sketch=0;points=[[0,0,0],[0.25,0,0],[0.5,0,0],[0.75,0,0],[1,0,0],[0,1,0],[0.25,1,0],[0.5,1,0],[0.75,1,0],[1,1,0],[0,0.25,0],[0,0.5,0],[0,0.75,0],[1,0.25,0],[1,0.5,0],[1,0.75,0]];outlineConnect=0;fontColor=#232F3E;fillColor=#ED7100;strokeColor=#ffffff;dashed=0;verticalLabelPosition=bottom;verticalAlign=top;align=center;html=1;fontSize=12;fontStyle=0;aspect=fixed;shape=mxgraph.aws4.resourceIcon;resIcon=mxgraph.aws4.ecs;" vertex="1" parent="1">
          <mxGeometry x="750" y="160" width="78" height="78" as="geometry" />
        </mxCell>
        <mxCell id="oOcDQRxdE2XJ66OAbeFX-15" value="" style="image;sketch=0;aspect=fixed;html=1;points=[];align=center;fontSize=12;image=img/lib/mscae/Cache_Redis_Product.svg;" vertex="1" parent="1">
          <mxGeometry x="677" y="363" width="50" height="42" as="geometry" />
        </mxCell>
        <mxCell id="oOcDQRxdE2XJ66OAbeFX-17" value="Redis Cluster" style="text;html=1;align=center;verticalAlign=middle;resizable=0;points=[];autosize=1;strokeColor=none;fillColor=none;" vertex="1" parent="1">
          <mxGeometry x="650" y="330" width="100" height="30" as="geometry" />
        </mxCell>
        <mxCell id="oOcDQRxdE2XJ66OAbeFX-20" style="edgeStyle=orthogonalEdgeStyle;rounded=0;orthogonalLoop=1;jettySize=auto;html=1;exitX=1;exitY=0.5;exitDx=0;exitDy=0;entryX=0;entryY=0.5;entryDx=0;entryDy=0;entryPerimeter=0;endArrow=none;endFill=0;" edge="1" parent="1" source="oOcDQRxdE2XJ66OAbeFX-3" target="oOcDQRxdE2XJ66OAbeFX-5">
          <mxGeometry relative="1" as="geometry" />
        </mxCell>
        <mxCell id="oOcDQRxdE2XJ66OAbeFX-22" value="tcp/8777" style="edgeLabel;html=1;align=center;verticalAlign=middle;resizable=0;points=[];" vertex="1" connectable="0" parent="oOcDQRxdE2XJ66OAbeFX-20">
          <mxGeometry x="-0.5017" y="-1" relative="1" as="geometry">
            <mxPoint x="13" y="10" as="offset" />
          </mxGeometry>
        </mxCell>
        <mxCell id="oOcDQRxdE2XJ66OAbeFX-23" value="AWS" style="text;html=1;align=center;verticalAlign=middle;resizable=0;points=[];autosize=1;strokeColor=none;fillColor=none;" vertex="1" parent="1">
          <mxGeometry x="675" y="40" width="50" height="30" as="geometry" />
        </mxCell>
        <mxCell id="oOcDQRxdE2XJ66OAbeFX-24" value="" style="rounded=0;whiteSpace=wrap;html=1;fillColor=none;" vertex="1" parent="1">
          <mxGeometry x="65" width="1005" height="520" as="geometry" />
        </mxCell>
      </root>
    </mxGraphModel>
  </diagram>
</mxfile>
